<svg width="24" height="22" viewBox="0 0 24 22" fill="none" xmlns="http://www.w3.org/2000/svg">
<path fill-rule="evenodd" clip-rule="evenodd" d="M12.041 18.6477C7.81024 18.6477 4.23608 15.0419 4.23608 10.7739C4.23608 6.50563 7.81024 2.89981 12.041 2.89981C16.2718 2.89981 19.8459 6.50563 19.8459 10.7739H19.8454C19.8454 12.3929 19.3303 13.916 18.4609 15.1838L16.0832 12.8063L14.1063 14.7832L16.506 17.1829C15.231 18.1006 13.6864 18.6477 12.041 18.6477ZM23.1085 19.8313L20.7327 17.4556C22.2135 15.6359 23.0908 13.323 23.0908 10.7739C23.0908 4.76908 18.237 0.065918 12.041 0.065918C5.8445 0.065918 0.990723 4.76908 0.990723 10.7739C0.990723 16.7784 5.8445 21.4818 12.041 21.4818C14.5613 21.4818 16.8595 20.7034 18.6993 19.3759L21.1316 21.8082L23.1085 19.8313Z" fill="#13395B"/>
</svg>
